<?xml version="1.0" standalone="no"?><!DOCTYPE svg PUBLIC "-//W3C//DTD SVG 1.1//EN" "http://www.w3.org/Graphics/SVG/1.1/DTD/svg11.dtd"><svg width="200" height="200" viewBox="0 0 200 200" version="1.1" xmlns="http://www.w3.org/2000/svg" xmlns:xlink="http://www.w3.org/1999/xlink"><defs><style type="text/css"><![CDATA[
@font-face { font-family: ifont; src: url(http://at.alicdn.com/t/font_1442373896_4754455.eot?#iefix) format(embedded-opentype), url(http://at.alicdn.com/t/font_1442373896_4754455.woff) format(woff), url(http://at.alicdn.com/t/font_1442373896_4754455.ttf) format(truetype), url(http://at.alicdn.com/t/font_1442373896_4754455.svg#ifont) format(svg); }

]]></style></defs><g class="transform-group"><g transform="scale(0.1953125, 0.1953125)"><path d="M377.363092 813.782208c0 45.774533-37.108153 82.883709-82.883709 82.883709l0 0c-45.775556 0-82.883709-37.109176-82.883709-82.883709l0-601.673345c0-45.775556 37.108153-82.883709 82.883709-82.883709l0 0c45.775556 0 82.883709 37.108153 82.883709 82.883709L377.363092 813.782208zM809.688471 813.782208c0 45.774533-37.109176 82.883709-82.883709 82.883709l0 0c-45.774533 0-82.883709-37.109176-82.883709-82.883709l0-601.673345c0-45.775556 37.109176-82.883709 82.883709-82.883709l0 0c45.774533 0 82.883709 37.108153 82.883709 82.883709L809.688471 813.782208z" fill="#272636"></path></g></g></svg>