<?xml version="1.0" standalone="no"?><!DOCTYPE svg PUBLIC "-//W3C//DTD SVG 1.1//EN" "http://www.w3.org/Graphics/SVG/1.1/DTD/svg11.dtd"><svg width="200" height="200" viewBox="0 0 200 200" version="1.1" xmlns="http://www.w3.org/2000/svg" xmlns:xlink="http://www.w3.org/1999/xlink"><defs><style type="text/css"><![CDATA[
@font-face { font-family: ifont; src: url(http://at.alicdn.com/t/font_1442373896_4754455.eot?#iefix) format(embedded-opentype), url(http://at.alicdn.com/t/font_1442373896_4754455.woff) format(woff), url(http://at.alicdn.com/t/font_1442373896_4754455.ttf) format(truetype), url(http://at.alicdn.com/t/font_1442373896_4754455.svg#ifont) format(svg); }

]]></style></defs><g class="transform-group"><g transform="scale(0.1953125, 0.1953125)"><path d="M276.051503 355.259166 114.224185 355.259166c-28.482877 0-51.592147 23.074531-51.592147 51.583842l0 220.654492c0 28.509311 23.109271 51.64831 51.592147 51.64831L276.051503 679.145811c0 0 0.138152 0 0.187273 0l319.135526 260.205277L595.374302 95.021144l-319.135526 260.236999C276.238776 355.259166 276.116998 355.259166 276.051503 355.259166zM721.309695 184.820356c-26.964227-9.383718-38.444158 33.287127-11.692787 42.637076 275.534712 95.944166 275.664677 483.59302 0 579.439972-26.801514 9.366322-15.271439 52.03819 11.692787 42.6074C1038.949084 739.054249 1038.754648 295.367101 721.309695 184.820356zM700.624739 649.38602c-24.214488 14.878872-2.049768 53.030797 22.312082 38.101783 131.058279-80.365352 130.913987-260.22165 0-340.66682-24.36185-14.945387-46.526569 23.269983-22.312082 38.132482C803.207304 447.99936 803.271775 586.404594 700.624739 649.38602z" fill="#272636"></path></g></g></svg>